<?xml version="1.0" encoding="utf-8"?><svg xmlns="http://www.w3.org/2000/svg" xmlns:xlink="http://www.w3.org/1999/xlink"><symbol viewBox="0 0 60 60" id="apache" xmlns="http://www.w3.org/2000/svg"><path d="M45 0a37.372 37.372 0 00-11.431 1.888 44.732 44.732 0 00-11.233 5.466 42.6 42.6 0 00-8.084 6.981 1.017 1.017 0 00-.222.422 88.454 88.454 0 00-1.9 10.063A4.57 4.57 0 0111 22a1 1 0 00-1.53-.848c-.348.218-8.428 5.485-5.508 21.706A40.624 40.624 0 000 59a1 1 0 001.625.781l5-4a1 1 0 00.345-.538A43.627 43.627 0 019.8 47.64c.669.104 1.344.157 2.021.159a31.029 31.029 0 009.494-1.85A1 1 0 0021 44a4.089 4.089 0 01-3.2-2.03c3.085.976 6.396.973 9.479-.009a1 1 0 00.306-.147 120.526 120.526 0 0013.122-11.107A1 1 0 0040 29a13.57 13.57 0 01-5.641-1.452c2.827.258 6.7.16 9.24-1.748 3.081-2.311 6.849-6.415 11.2-12.2a45.965 45.965 0 005.129-9.228A1 1 0 0059.6 3.2C59.426 3.069 55.216 0 45 0zM5.117 54.426L2.138 56.81A39.273 39.273 0 015.9 43.447C9.37 36.5 23.528 20.093 36.246 14.145c-6.931 4.945-19.8 15.732-28.141 32.408a45.219 45.219 0 00-2.988 7.873zM53.2 12.4a111.563 111.563 0 01-4.145 5.2A32.335 32.335 0 0140 19a1 1 0 000 2 32.575 32.575 0 006.669-.735A35.137 35.137 0 0142.4 24.2c-3.567 2.677-11.082.848-11.158.83A1 1 0 0030.2 26.6a11.91 11.91 0 007.568 4.177 122.061 122.061 0 01-11.209 9.308c-6.282 1.732-9.814-.78-9.959-.885a1 1 0 00-1.58 1 7.286 7.286 0 002.821 4.7c-2.287.673-4.67.96-7.052.852a89.841 89.841 0 0126.619-29.98 1.959 1.959 0 00.566-2.627 1.979 1.979 0 00-2.591-.806c-12.2 5.708-24.805 19.818-29.816 27.685C4.461 30.564 7.524 25.808 9.33 23.9a8.773 8.773 0 003.115 3.934A1 1 0 0014 27c0-3.453 1.585-10.171 1.912-11.52a38.88 38.88 0 012.778-2.774A21.86 21.86 0 0018 18a1 1 0 002 0 21.669 21.669 0 011.52-7.623 43.239 43.239 0 018.365-4.94c-.363.744-.65 1.522-.856 2.323a1 1 0 001.942.48 13.342 13.342 0 011.911-4.012A36.241 36.241 0 0145 2c7.277 0 11.268 1.642 12.737 2.412A43.482 43.482 0 0153.2 12.4z"/></symbol><symbol viewBox="0 0 512 512" id="git" xmlns="http://www.w3.org/2000/svg"><path d="M365.1 74.6c-43.8 0-80.2 36.4-80.2 80.2 0 38.2 27 70.9 64.3 78.3-.9 21.4-12.1 33.6-30.8 48.5-23.3 17.7-53.2 23.3-74.6 27-46.6 8.4-71.8 30.8-83 45.7V159.5c16.8-2.8 32.6-12.1 44.8-25.2 13.1-14.9 20.5-33.6 20.5-54.1C226.2 36.4 189.8 0 146 0S65.7 36.4 65.7 80.2c0 19.6 7.5 38.2 19.6 53.2 11.2 13.1 26.1 21.4 42.9 25.2v195.8c-16.8 3.7-31.7 13.1-42.9 25.2-13.1 14.9-19.6 33.6-19.6 52.2 0 43.8 36.4 80.2 80.2 80.2s80.2-36.4 80.2-80.2c0-27-13.1-51.3-35.4-66.2 10.3-11.2 28-22.4 58.8-28 25.2-4.7 60.6-11.2 88.6-32.6 27-20.5 42-42 43.8-73.7 37.3-7.5 64.3-40.1 64.3-78.3-.9-43-37.3-78.4-81.1-78.4zM97.5 81.1c0-26.1 21.4-48.5 48.5-48.5 26.1 0 48.5 21.4 48.5 48.5S173 129.6 146 129.6c-27.1 0-48.5-22.4-48.5-48.5zm96 352.6c0 26.1-21.4 48.5-48.5 48.5-26.1 0-48.5-21.4-48.5-48.5s21.4-48.5 48.5-48.5c27.1.9 48.5 22.3 48.5 48.5zm171.6-231.3c-26.1 0-48.5-21.4-48.5-48.5 0-26.1 21.4-48.5 48.5-48.5 26.1 0 48.5 21.4 48.5 48.5-.9 27-22.4 48.5-48.5 48.5z"/></symbol><symbol viewBox="0 0 512 512" id="logs" xmlns="http://www.w3.org/2000/svg"><path d="M32 464V48c0-8.837 7.163-16 16-16h240v64c0 17.673 14.327 32 32 32h64v48h32v-64a15.997 15.997 0 00-4.64-11.36l-96-96A16.001 16.001 0 00304 0H48C21.49 0 0 21.491 0 48v416c0 26.51 21.49 48 48 48h112v-32H48c-8.836 0-16-7.163-16-16zm448-144h-32v32h32v32h-64v-96h96c0-17.673-14.327-32-32-32h-64c-17.673 0-32 14.327-32 32v96c0 17.673 14.327 32 32 32h64c17.673 0 32-14.327 32-32v-32c0-17.673-14.327-32-32-32z"/><path d="M304 256c-35.346 0-64 28.654-64 64v32c0 35.346 28.654 64 64 64 35.346 0 64-28.654 64-64v-32c0-35.346-28.654-64-64-64zm32 96c0 17.673-14.327 32-32 32-17.673 0-32-14.327-32-32v-32c0-17.673 14.327-32 32-32 17.673 0 32 14.327 32 32v32zm-176-96h-32v144c0 8.837 7.163 16 16 16h80v-32h-64V256z"/></symbol><symbol viewBox="0 0 28 24" id="nginx" xmlns="http://www.w3.org/2000/svg"><path d="M7.625 0l-.688 1.281-5.312 9.656-.688 1.22.688 1.218 5.313 9.344L7.655 24h13.907l.687-1.406 3.969-8L28 10.969h-4.031L13.812 11c-1.32-.019-2.312-.32-2.312 1s.992 1.019 2.313 1H25l-5.063 9.594H9.126l-6.14-10.438 6.14-10.75h11.409l3.435 7.602h1.986l-3.171-7.602L22.096 0H7.625z"/></symbol><symbol viewBox="0 0 368 368" id="settings" xmlns="http://www.w3.org/2000/svg"><path d="M344 144h-29.952c-2.512-8.2-5.8-16.12-9.792-23.664l21.16-21.16c4.528-4.528 7.024-10.56 7.024-16.984 0-6.416-2.496-12.448-7.024-16.976l-22.64-22.64c-9.048-9.048-24.888-9.072-33.952 0l-21.16 21.16A135.753 135.753 0 00224 53.944V24c0-13.232-10.768-24-24-24h-32c-13.232 0-24 10.768-24 24v29.952c-8.2 2.52-16.12 5.8-23.664 9.792l-21.168-21.16c-9.36-9.36-24.592-9.36-33.952 0l-22.648 22.64c-9.352 9.36-9.352 24.592 0 33.952l21.16 21.168a135.753 135.753 0 00-9.792 23.664H24c-13.232 0-24 10.768-24 24v32C0 213.232 10.768 224 24 224h29.952c2.52 8.2 5.8 16.12 9.792 23.664l-21.16 21.168c-9.36 9.36-9.36 24.592 0 33.952l22.64 22.648c9.36 9.352 24.592 9.352 33.952 0l21.168-21.16a135.753 135.753 0 0023.664 9.792V344c0 13.232 10.768 24 24 24h32c13.232 0 24-10.768 24-24v-29.952c8.2-2.52 16.128-5.8 23.664-9.792l21.16 21.168c9.072 9.064 24.912 9.048 33.952 0l22.64-22.64c4.528-4.528 7.024-10.56 7.024-16.976 0-6.424-2.496-12.448-7.024-16.976l-21.16-21.168A135.753 135.753 0 00314.056 224H344c13.232 0 24-10.768 24-24v-32c0-13.232-10.768-24-24-24zm8 56c0 4.408-3.584 8-8 8h-36a8.002 8.002 0 00-7.744 6c-2.832 10.92-7.144 21.344-12.832 30.976a8.01 8.01 0 001.232 9.72l25.44 25.448a7.948 7.948 0 012.336 5.664c0 2.152-.832 4.16-2.336 5.664l-22.64 22.64c-3.008 3.008-8.312 3.008-11.328 0l-25.44-25.44c-2.576-2.584-6.576-3.08-9.728-1.232-9.616 5.68-20.04 10-30.968 12.824A7.988 7.988 0 00208 308v36c0 4.408-3.584 8-8 8h-32c-4.408 0-8-3.592-8-8v-36a8.002 8.002 0 00-6-7.744 119.948 119.948 0 01-30.976-12.824 7.915 7.915 0 00-4.064-1.112c-2.072 0-4.12.8-5.664 2.344l-25.44 25.44a8.025 8.025 0 01-11.328 0l-22.64-22.64c-3.128-3.128-3.128-8.208 0-11.328l25.44-25.44a7.99 7.99 0 001.232-9.72c-5.68-9.632-10-20.048-12.824-30.976A7.986 7.986 0 0060 208H24c-4.408 0-8-3.592-8-8v-32c0-4.408 3.592-8 8-8h36a8.002 8.002 0 007.744-6 119.948 119.948 0 0112.824-30.976 7.988 7.988 0 00-1.232-9.72l-25.44-25.44c-3.12-3.12-3.12-8.2 0-11.328l22.64-22.64c3.128-3.128 8.2-3.12 11.328 0l25.44 25.44a7.978 7.978 0 009.72 1.232c9.632-5.68 20.048-10 30.976-12.824A8.002 8.002 0 00160 60V24c0-4.408 3.592-8 8-8h32c4.416 0 8 3.592 8 8v36a8.002 8.002 0 006 7.744 119.827 119.827 0 0130.968 12.824c3.152 1.856 7.152 1.36 9.728-1.232l25.44-25.44c3.016-3.024 8.32-3.016 11.328 0l22.64 22.64c1.504 1.504 2.336 3.52 2.336 5.664s-.832 4.16-2.336 5.664l-25.44 25.44a8.002 8.002 0 00-1.232 9.72c5.688 9.632 10 20.048 12.832 30.976a7.986 7.986 0 007.736 6h36c4.416 0 8 3.592 8 8v32z"/><path d="M184 112c-39.696 0-72 32.304-72 72s32.304 72 72 72c39.704 0 72-32.304 72-72s-32.296-72-72-72zm0 128c-30.88 0-56-25.12-56-56s25.12-56 56-56c30.872 0 56 25.12 56 56s-25.128 56-56 56z"/></symbol></svg>