<svg id="_x31_px" enable-background="new 0 0 24 24" height="512" viewBox="0 0 24 24" width="512" xmlns="http://www.w3.org/2000/svg"><path d="m18 20c-1.378 0-2.5-1.121-2.5-2.5s1.122-2.5 2.5-2.5 2.5 1.121 2.5 2.5-1.122 2.5-2.5 2.5zm0-4c-.827 0-1.5.673-1.5 1.5s.673 1.5 1.5 1.5 1.5-.673 1.5-1.5-.673-1.5-1.5-1.5z"/><path d="m18.775 24h-1.55c-.51 0-.932-.388-.98-.902l-.124-1.273c-.29-.133-.567-.299-.829-.495l-1.121.521c-.467.219-1.013.039-1.268-.415l-.774-1.38c-.248-.443-.129-1.003.275-1.303l1-.741c-.019-.156-.033-.329-.033-.511s.014-.354.033-.511l-1-.741c-.405-.3-.523-.859-.276-1.302l.775-1.382c.254-.453.798-.628 1.267-.415l1.121.521c.262-.196.539-.362.829-.495l.124-1.274c.049-.514.471-.902.981-.902h1.55c.51 0 .932.388.98.902l.124 1.273c.29.133.567.299.829.495l1.121-.521c.468-.216 1.014-.039 1.268.415l.774 1.38c.248.443.129 1.003-.275 1.303l-1 .741c.019.156.033.329.033.511s-.014.354-.033.511l1 .741c.405.3.523.859.276 1.302l-.775 1.382c-.253.453-.796.631-1.267.415l-1.121-.521c-.262.196-.539.362-.829.495l-.124 1.274c-.049.514-.471.902-.981.902zm-3.412-3.755c.117 0 .233.041.326.121.329.283.691.5 1.076.645.178.066.303.229.322.419l.153 1.571 1.535-.001.138-1.57c.019-.189.144-.353.322-.419.385-.145.747-.361 1.076-.645.149-.129.359-.158.537-.074l1.402.651.749-1.379-1.24-.929c-.151-.111-.227-.299-.196-.485.036-.212.065-.427.065-.65s-.029-.438-.065-.65c-.031-.187.044-.374.196-.485l1.241-.92-.776-1.391-1.376.653c-.178.082-.388.054-.537-.074-.329-.283-.691-.5-1.076-.645-.178-.066-.303-.229-.322-.419l-.153-1.571-1.535.002-.138 1.57c-.019.189-.144.353-.322.419-.385.145-.747.361-1.076.645-.15.128-.36.156-.537.074l-1.402-.651-.749 1.379 1.24.929c.151.111.227.299.196.485-.036.212-.065.427-.065.65s.029.438.065.65c.031.187-.044.374-.196.485l-1.241.92.776 1.391 1.376-.653c.067-.032.14-.048.211-.048z"/><path d="m11.39 24h-6.89c-1.378 0-2.5-1.121-2.5-2.5v-19c0-1.379 1.122-2.5 2.5-2.5h15c1.378 0 2.5 1.121 2.5 2.5v7.32c0 .276-.224.5-.5.5s-.5-.223-.5-.5v-7.32c0-.827-.673-1.5-1.5-1.5h-15c-.827 0-1.5.673-1.5 1.5v19c0 .827.673 1.5 1.5 1.5h6.89c.276 0 .5.224.5.5s-.223.5-.5.5z"/><path d="m5.5 9c-.276 0-.5-.224-.5-.5v-5c0-.276.224-.5.5-.5h1.5c1.103 0 2 .897 2 2s-.897 2-2 2h-1v1.5c0 .276-.224.5-.5.5zm.5-3h1c.551 0 1-.448 1-1s-.449-1-1-1h-1z"/><path d="m15.5 9c-.276 0-.5-.224-.5-.5v-5c0-.276.224-.5.5-.5h1.5c1.103 0 2 .897 2 2s-.897 2-2 2h-1v1.5c0 .276-.224.5-.5.5zm.5-3h1c.551 0 1-.448 1-1s-.449-1-1-1h-1z"/><path d="m13.5 9c-.276 0-.5-.224-.5-.5v-5c0-.276.224-.5.5-.5s.5.224.5.5v5c0 .276-.224.5-.5.5z"/><path d="m13.25 7h-2.5c-.276 0-.5-.224-.5-.5s.224-.5.5-.5h2.5c.276 0 .5.224.5.5s-.224.5-.5.5z"/><path d="m10.5 9c-.276 0-.5-.224-.5-.5v-5c0-.276.224-.5.5-.5s.5.224.5.5v5c0 .276-.224.5-.5.5z"/></svg>